<svg width="300" height="250" viewBox="0 0 300 250" fill="none" xmlns="http://www.w3.org/2000/svg">
<path d="M159.375 34.1714C171.637 21.0266 192.788 17.2682 217.725 19.8247C240.863 22.1904 264.656 29.8025 281.25 36.8615V226.174C264.038 219.497 241.744 212.972 219.619 210.721C199.106 208.603 176.906 209.977 159.375 220.107V34.1714ZM150 16.9248C131.531 0.765584 104.756 -1.63826 80.3813 0.841897C51.9938 3.76086 23.3438 13.6624 5.49375 21.9233C3.85592 22.6812 2.46704 23.9027 1.49289 25.4419C0.51875 26.9811 0.000498214 28.7731 0 30.6038L0 240.464C0.000434287 242.06 0.394446 243.63 1.14595 245.031C1.89744 246.432 2.98241 247.619 4.30145 248.482C5.6205 249.346 7.13146 249.859 8.69594 249.975C10.2604 250.091 11.8284 249.805 13.2563 249.144C29.7938 241.513 56.4375 232.336 82.2562 229.684C108.675 226.975 130.819 231.344 142.688 246.416C143.566 247.53 144.679 248.429 145.945 249.047C147.21 249.665 148.596 249.986 150 249.986C151.404 249.986 152.79 249.665 154.055 249.047C155.321 248.429 156.434 247.53 157.312 246.416C169.181 231.344 191.325 226.975 217.725 229.684C243.563 232.336 270.225 241.513 286.744 249.144C288.172 249.805 289.74 250.091 291.304 249.975C292.869 249.859 294.379 249.346 295.699 248.482C297.018 247.619 298.103 246.432 298.854 245.031C299.606 243.63 300 242.06 300 240.464V30.6038C300 28.7731 299.481 26.9811 298.507 25.4419C297.533 23.9027 296.144 22.6812 294.506 21.9233C276.656 13.6624 248.006 3.76086 219.619 0.841897C195.244 -1.65734 168.469 0.765584 150 16.9248Z" fill="#4B352A"/>
</svg>
