<svg width="40" height="40" viewBox="0 0 40 40" fill="none" xmlns="http://www.w3.org/2000/svg">
<path fill-rule="evenodd" clip-rule="evenodd" d="M2.33887 19.9996C2.33887 10.2458 10.2459 2.33875 19.9998 2.33875C29.7536 2.33875 37.6605 10.2458 37.6605 19.9996C37.6605 29.7533 29.7536 37.6605 19.9998 37.6605C10.2459 37.6605 2.33887 29.7533 2.33887 19.9996ZM19.9998 4.87207C11.645 4.87207 4.87221 11.6449 4.87221 19.9996C4.87221 28.3544 11.645 35.1272 19.9998 35.1272C28.3544 35.1272 35.1272 28.3544 35.1272 19.9996C35.1272 11.6449 28.3544 4.87207 19.9998 4.87207ZM26.2762 13.7238C26.7968 14.2445 26.7968 15.0887 26.2762 15.6094L21.8857 19.9999L26.2762 24.3905C26.7968 24.9112 26.7968 25.7554 26.2762 26.2761C25.7555 26.7968 24.9113 26.7968 24.3906 26.2761L20.0001 21.8856L15.6095 26.2761C15.0889 26.7968 14.2446 26.7968 13.7239 26.2761C13.2032 25.7554 13.2032 24.9112 13.7239 24.3905L18.1145 19.9999L13.7239 15.6094C13.2032 15.0887 13.2032 14.2445 13.7239 13.7238C14.2446 13.2031 15.0889 13.2031 15.6095 13.7238L20.0001 18.1143L24.3906 13.7238C24.9113 13.2031 25.7555 13.2031 26.2762 13.7238Z" fill="black"/>
</svg>
