<svg width="150" height="150" viewBox="0 0 150 150" fill="none" xmlns="http://www.w3.org/2000/svg">
<path d="M72.9288 32.5765C73.7913 30.8091 76.2088 30.8092 77.0713 32.5765L82.1556 42.9986C82.4931 43.6903 83.1269 44.1718 83.8613 44.2939L94.9138 46.1326C96.7869 46.4442 97.5338 48.842 96.1938 50.245L88.2813 58.532C87.7575 59.081 87.5156 59.8585 87.6313 60.6244L89.375 72.19C89.6706 74.1487 87.7156 75.6312 86.0238 74.7312L76.055 69.4268C75.3925 69.0737 74.6075 69.0737 73.945 69.4268L63.9763 74.7312C62.2846 75.6312 60.3294 74.1487 60.6247 72.19L62.3688 60.6244C62.4843 59.8585 62.2426 59.081 61.7184 58.532L53.806 50.245C52.4665 48.842 53.213 46.4442 55.0863 46.1326L66.1388 44.2939C66.8731 44.1718 67.5069 43.6903 67.8444 42.9986L72.9288 32.5765Z" stroke="white" stroke-width="1.5" stroke-linecap="round" stroke-linejoin="round"/>
<path d="M118.75 56.25C118.75 80.4125 99.1625 100 75 100C50.8376 100 31.25 80.4125 31.25 56.25C31.25 32.0876 50.8376 12.5 75 12.5C99.1625 12.5 118.75 32.0876 118.75 56.25Z" stroke="white" stroke-width="1.5" stroke-linecap="round" stroke-linejoin="round"/>
<path d="M81.25 102.14L91.415 129.071C93.4631 134.497 94.4875 137.21 96.2688 137.5C98.0544 137.236 100.242 134.253 102.38 128.858C103.911 124.994 104.676 123.063 106.253 122.022C106.737 121.703 107.266 121.45 107.825 121.272C109.648 120.693 111.744 121.259 115.936 122.393C120.418 123.604 123.532 123.266 124.761 122.393C125.123 122.136 124.761 122.373 124.761 122.373C125.485 121.089 124.508 119.087 122.555 115.082L109.101 87.5" stroke="white" stroke-width="1.5" stroke-linecap="round" stroke-linejoin="round"/>
<path d="M68.75 102.138L58.585 129.064C56.5369 134.489 54.5107 137.21 52.7295 137.5C50.9436 137.236 49.8745 134.539 47.7363 129.145C46.2055 125.283 45.3234 123.058 43.7468 122.016C43.2633 121.697 42.7341 121.445 42.1752 121.267C40.3524 120.688 38.2563 121.254 34.0642 122.388C29.5818 123.599 26.4681 123.241 25.2384 122.368C24.5148 121.084 25.4916 119.082 27.4452 115.077L40.8992 87.5" stroke="white" stroke-width="1.5" stroke-linecap="round" stroke-linejoin="round"/>
</svg>
